<svg width="45" height="40" viewBox="0 0 45 40" fill="none" xmlns="http://www.w3.org/2000/svg">
<path d="M16.6324 37.487C12.2098 37.487 8.62577 33.9011 8.62577 29.4786V20.2843H24.639V29.4786C24.639 33.9021 21.0539 37.487 16.6324 37.487Z" fill="#00AE99"/>
<path d="M13.8426 35.8359C12.7636 35.6671 11.7974 35.1586 11.057 34.4223C10.133 33.5034 9.56134 32.23 9.56134 30.8247V21.0671H11.057V31.1507C11.057 33.1742 12.1835 34.9318 13.8426 35.8359Z" fill="white"/>
<path d="M41.8378 12.2759C41.8378 16.6995 38.2527 20.2843 33.8312 20.2843H24.639V4.26639H33.8312C38.2538 4.26639 41.8378 7.8523 41.8378 12.2759Z" fill="#00AE99"/>
<path d="M40.1861 9.32718C40.0173 8.24792 39.509 7.28155 38.7727 6.54095C37.854 5.61677 36.581 5.04497 35.176 5.04497H25.4206V6.54095H35.5019C37.525 6.54095 39.2832 7.66768 40.1861 9.32718Z" fill="white"/>
<path d="M22.9462 4.52697C22.9314 4.53963 22.9177 4.55334 22.9029 4.56706C22.8428 4.62508 22.7837 4.68311 22.7257 4.74219C22.6202 4.84874 22.519 4.95846 22.4209 5.0724C21.7638 5.83305 21.268 6.73612 20.9843 7.72887C21.3651 7.71832 21.7385 7.67823 22.1013 7.60965C21.9515 8.07701 21.7532 8.52222 21.5128 8.93894C21.3756 9.17737 21.2248 9.4063 21.0613 9.62574C20.9548 9.76922 20.8419 9.90742 20.7249 10.0414C20.0466 10.8189 19.1965 11.4435 18.2346 11.857C18.2145 11.6397 18.204 11.4203 18.204 11.1977C18.204 9.86417 18.5753 8.61717 19.2208 7.55479C19.2324 7.5358 19.245 7.51576 19.2577 7.49571C19.3157 7.40182 19.3769 7.30793 19.4402 7.2172C20.0667 6.30674 20.9031 5.55136 21.8798 5.0207C20.7924 5.45747 19.8399 6.15798 19.1016 7.04418C19.0436 7.11275 18.9877 7.18344 18.9328 7.25412C18.8854 7.31531 18.839 7.37756 18.7936 7.44085C17.9625 8.59396 17.472 10.0108 17.472 11.5416C17.472 11.7378 17.4804 11.933 17.4963 12.125C17.4783 12.1313 17.4614 12.1366 17.4435 12.1408C17.4846 12.2938 17.5205 12.4489 17.5522 12.6061C17.5522 12.6082 17.5532 12.6103 17.5532 12.6114C17.5732 12.7475 17.5986 12.8814 17.627 13.0144C17.627 13.0165 17.6281 13.0186 17.6281 13.0207C17.6608 13.2159 17.6861 13.4132 17.7051 13.6115C17.7357 13.9174 17.7504 14.2276 17.7504 14.5409C17.7504 15.041 17.7114 15.5326 17.6365 16.0127C17.6313 16.0496 17.6249 16.0865 17.6186 16.1234C17.6397 16.0992 17.6608 16.0749 17.6819 16.0517C17.9392 15.7574 18.2219 15.4862 18.5246 15.2404C18.7324 15.0706 18.9508 14.9123 19.1775 14.7678C19.9844 14.2519 20.9031 13.8963 21.8904 13.7455C21.9294 13.7392 21.9695 13.7339 22.0095 13.7297C22.0612 13.7212 22.114 13.7149 22.1667 13.7096C22.1224 13.7265 22.0781 13.7434 22.0338 13.7624C21.9821 13.7824 21.9315 13.8035 21.8819 13.8257C21.0191 14.1991 20.247 14.7403 19.6047 15.4082C19.4191 15.6012 19.245 15.8048 19.0826 16.0179C18.9117 16.2416 18.7546 16.4747 18.6122 16.7185C18.5542 16.8166 18.4983 16.9168 18.4445 17.0191C18.0553 17.7629 17.7947 18.5868 17.6945 19.4583C17.6724 19.6482 17.6576 19.8412 17.6513 20.0353H15.4659C15.469 20.028 15.4722 20.0206 15.4743 20.0132C15.8635 18.8896 16.0755 17.6827 16.0755 16.4273C16.0755 15.5812 15.9795 14.7583 15.797 13.967C15.6757 13.4332 15.5144 12.9152 15.3171 12.4151C14.6727 10.781 13.6464 9.33984 12.3501 8.2015C12.1845 8.05486 12.0147 7.91455 11.8396 7.78056C11.5654 7.5664 11.2806 7.36595 10.9863 7.17922C10.2438 6.70764 9.44004 6.32362 8.59097 6.04194C8.60257 6.18963 8.61945 6.33522 8.64054 6.47976C9.29027 6.77726 9.90519 7.13807 10.479 7.55374C10.768 7.76157 11.0464 7.98418 11.3133 8.22049C11.4377 8.33021 11.559 8.44204 11.6782 8.55809C12.7625 9.6057 13.6316 10.877 14.2096 12.297C14.4322 12.8424 14.6126 13.4089 14.7444 13.9945C13.041 13.947 11.4493 13.449 10.0856 12.6166C9.7744 12.4267 9.47485 12.2189 9.18901 11.9953C8.82196 11.7094 8.47705 11.396 8.15535 11.0605C7.74611 10.6301 7.37695 10.1617 7.05314 9.66161C7.59212 9.65423 8.12266 9.60675 8.63949 9.52235C7.87374 8.38824 6.9002 7.40604 5.77372 6.62957C5.35709 6.34155 4.92043 6.08203 4.46477 5.8552C4.25699 5.7497 4.04604 5.65264 3.83087 5.56086C3.77496 5.53765 3.71801 5.51444 3.66211 5.49229C3.79922 5.48596 3.9374 5.48385 4.07557 5.48385C4.25277 5.48385 4.42997 5.48807 4.60505 5.49651C4.78014 5.48807 4.95734 5.48385 5.13454 5.48385C5.23896 5.48385 5.34233 5.4849 5.44569 5.48807C5.49105 5.4733 5.53746 5.45958 5.58281 5.44692C6.43505 5.19478 7.33687 5.05974 8.27032 5.05974C8.37474 5.05974 8.47811 5.06185 8.58148 5.06501C10.1509 5.11565 11.6244 5.54714 12.9112 6.27298C13.1844 6.4249 13.4492 6.59159 13.7034 6.77094C13.8131 6.84689 13.9206 6.92602 14.0272 7.00831C14.5894 7.43769 15.102 7.92932 15.5544 8.47264C15.7285 8.68047 15.893 8.89569 16.047 9.11829C16.3466 8.27535 16.8064 7.50732 17.3887 6.85111C17.4794 6.74773 17.5743 6.6475 17.6713 6.55044C17.6734 6.54833 17.6756 6.54622 17.6787 6.54306C18.8864 5.3372 20.5371 4.57339 22.366 4.51958C22.4357 4.51747 22.5053 4.51642 22.5759 4.51642C22.7004 4.51642 22.8238 4.51958 22.9462 4.52697Z" fill="#95BD04"/>
</svg>
